STARTFONT 2.1
COMMENT $XConsortium: dtinfo.bdf /main/2 1996/09/13 17:17:16 drk $
COMMENT
COMMENT  This BDF was created by dtgpftobdf.
COMMENT   (and modified under emacs by daniel@x.org to
COMMENT    incorporate all space characters used in dtinfo)
COMMENT    Created date : Mon Jun  3 15:01:51 1996
COMMENT
FONT -dt-dtinfo-medium-r-normal--14-100-100-100-p-100-dtinfo-0
SIZE 10 100 100
FONTBOUNDINGBOX 12 15 3 -2
STARTPROPERTIES 31
FONT_ASCENT 13
FONT_DESCENT 3
DEFAULT_CHAR 0
FONTNAME_REGISTRY ""
FOUNDRY "dt"
FAMILY_NAME "dtinfo"
WEIGHT_NAME "Medium"
SLANT "R"
SETWIDTH_NAME "Normal"
ADD_STYLE_NAME ""
PIXEL_SIZE 14
POINT_SIZE 100
RESOLUTION_X 100
RESOLUTION_Y 100
SPACING "P"
AVERAGE_WIDTH 100
CHARSET_REGISTRY "dtinfo"
CHARSET_ENCODING "0"
COPYRIGHT "1992 HaL Computer Systems, Inc.  All Rights Reserved."
COPYRIGHT "1996 Digital Equipment Corporation."
COPYRIGHT "1996 Hewlett-Packard Company."
COPYRIGHT "1996 International Business Machines Corp."
COPYRIGHT "1996 Sun Microsystems, Inc."
COPYRIGHT "1996 Novell, Inc."
COPYRIGHT "1996 FUJITSU LIMITED."
COPYRIGHT "1996 Hitachi.COPYRIGHT "1996 CDE/PST."
FONT "-dt-dtinfo-medium-r-normal--14-100-100-100-p-100-dtinfo-0"
WEIGHT 10
RESOLUTION 138
X_HEIGHT 1
QUAD_WIDTH 8
ENDPROPERTIES
CHARS 36
STARTCHAR default
ENCODING 0
SWIDTH 720 0
DWIDTH 10 0
BBX 9 13 0 0
BITMAP
7f00
8080
9c80
a280
a280
8280
8480
8880
8880
8080
8880
8080
7f00
ENDCHAR
STARTCHAR space
ENCODING 32
SWIDTH 278 0
DWIDTH 4 0
BBX 1 1 0 0
BITMAP
00
ENDCHAR
STARTCHAR solid_tracker
ENCODING 42
SWIDTH 1152 0
DWIDTH 14 0
BBX 14 14 1 -2
BITMAP
03f8
0ffc
1ff8
3fc0
3fe0
3fc0
5fe0
efc0
f7e0
fb00
7c00
3e00
1e00
0c00
ENDCHAR
STARTCHAR hollow_tracker
ENCODING 43
SWIDTH 1152 0
DWIDTH 14 0
BBX 14 14 1 -2
BITMAP
07f8
0804
11f8
2020
21c0
2020
61c0
9020
88c0
8500
4200
2200
1200
0c00
ENDCHAR
STARTCHAR leaf_icon
ENCODING 46
SWIDTH 1008 0
DWIDTH 14 0
BBX 1 1 0 0
BITMAP
00
ENDCHAR
STARTCHAR pie0
ENCODING 48
SWIDTH 1008 0
DWIDTH 14 0
BBX 12 12 1 0
BITMAP
0f00
30c0
4020
4020
8010
8010
8010
8010
4020
4020
30c0
0f00
ENDCHAR
STARTCHAR pie1
ENCODING 49
SWIDTH 1008 0
DWIDTH 14 0
BBX 12 12 1 0
BITMAP
0f00
33c0
43e0
43a0
8310
8210
8010
8010
4020
4020
30c0
0f00
ENDCHAR
STARTCHAR pie2
ENCODING 50
SWIDTH 1008 0
DWIDTH 14 0
BBX 12 12 1 0
BITMAP
0f00
33c0
43e0
43e0
83f0
83f0
8010
8010
4020
4020
30c0
0f00
ENDCHAR
STARTCHAR pie3
ENCODING 51
SWIDTH 1008 0
DWIDTH 14 0
BBX 12 12 1 0
BITMAP
0f00
33c0
43e0
43e0
83f0
83f0
83f0
81f0
40e0
4060
30c0
0f00
ENDCHAR
STARTCHAR pie4
ENCODING 52
SWIDTH 1008 0
DWIDTH 14 0
BBX 12 12 1 0
BITMAP
0f00
33c0
43e0
43e0
83f0
83f0
83f0
83f0
43e0
43e0
33c0
0f00
ENDCHAR
STARTCHAR pie5
ENCODING 53
SWIDTH 1008 0
DWIDTH 14 0
BBX 12 12 1 0
BITMAP
0f00
33c0
43e0
43e0
83f0
83f0
87f0
8ff0
5fe0
7fe0
3fc0
0f00
ENDCHAR
STARTCHAR pie6
ENCODING 54
SWIDTH 1008 0
DWIDTH 14 0
BBX 12 12 1 0
BITMAP
0f00
33c0
43e0
43e0
83f0
83f0
fff0
fff0
7fe0
7fe0
3fc0
0f00
ENDCHAR
STARTCHAR pie7
ENCODING 55
SWIDTH 1008 0
DWIDTH 14 0
BBX 12 12 1 0
BITMAP
0f00
33c0
63e0
73e0
fbf0
fff0
fff0
fff0
7fe0
7fe0
3fc0
0f00
ENDCHAR
STARTCHAR pie8
ENCODING 56
SWIDTH 1008 0
DWIDTH 14 0
BBX 12 12 1 0
BITMAP
0f00
3fc0
7fe0
7fe0
fff0
fff0
fff0
fff0
7fe0
7fe0
3fc0
0f00
ENDCHAR
STARTCHAR right_filled_pointer
ENCODING 62
SWIDTH 1008 0
DWIDTH 14 0
BBX 6 12 3 0
BITMAP
80
c0
e0
f0
f8
fc
fc
f8
f0
e0
c0
80
ENDCHAR
STARTCHAR right_hollow_pointer
ENCODING 63
SWIDTH 1008 0
DWIDTH 14 0
BBX 6 12 3 0
BITMAP
80
c0
e0
b0
98
8c
8c
98
b0
e0
c0
80
ENDCHAR
STARTCHAR annotation_multi_icon
ENCODING 65
SWIDTH 1152 0
DWIDTH 16 0
BBX 12 13 2 0
BITMAP
3f80
2140
ed20
a110
adf0
a010
afd0
a010
afd0
a010
bff0
8040
ffc0
ENDCHAR
STARTCHAR bookmark_multi_icon
ENCODING 66
SWIDTH 1152 0
DWIDTH 16 0
BBX 12 13 2 0
BITMAP
3f80
2140
e120
a110
a1f0
a010
a010
a010
a010
a010
bff0
8040
ffc0
ENDCHAR
STARTCHAR link_multi_icon
ENCODING 76
SWIDTH 1152 0
DWIDTH 16 0
BBX 14 10 1 1
BITMAP
1ffc
1004
1304
03c4
fff4
fff4
03c4
1304
1004
1ffc
ENDCHAR
STARTCHAR down_filled_pointer
ENCODING 86
SWIDTH 1008 0
DWIDTH 14 0
BBX 12 6 0 2
BITMAP
fff0
7fe0
3fc0
1f80
0f00
0600
ENDCHAR
STARTCHAR down_hollow_pointer
ENCODING 87
SWIDTH 1008 0
DWIDTH 14 0
BBX 12 6 0 2
BITMAP
fff0
6060
30c0
1980
0f00
0600
ENDCHAR
STARTCHAR annotation_icon
ENCODING 97
SWIDTH 1152 0
DWIDTH 16 0
BBX 12 12 2 0
BITMAP
ff00
8280
ba40
8220
bbe0
8020
bfa0
8020
bfa0
8020
8020
ffe0
ENDCHAR
STARTCHAR bookmark_icon
ENCODING 98
SWIDTH 1152 0
DWIDTH 16 0
BBX 12 12 2 0
BITMAP
ff00
8280
8240
8220
83e0
8020
8020
8020
8020
8020
8020
ffe0
ENDCHAR
STARTCHAR link_icon
ENCODING 108
SWIDTH 1152 0
DWIDTH 16 0
BBX 14 10 1 1
BITMAP
1ffc
1004
1304
03c4
fff4
fff4
03c4
1304
1004
1ffc
ENDCHAR
STARTCHAR infolib
ENCODING 110
SWIDTH 1152 0
DWIDTH 16 0
BBX 14 13 1 -2
BITMAP
0f80
3ce0
6230
5458
e898
974c
afac
974c
c8bc
5158
6238
39f0
0fc0
ENDCHAR
STARTCHAR infobase
ENCODING 111
SWIDTH 1152 0
DWIDTH 16 0
BBX 14 13 1 -2
BITMAP
0fc0
08f8
fa88
8fac
f8dc
a8ac
f88c
888c
8fac
aaac
888c
fffc
7ffc
ENDCHAR
STARTCHAR book
ENCODING 112
SWIDTH 1152 0
DWIDTH 16 0
BBX 14 13 1 -2
BITMAP
3fc0
5fe0
d820
eff0
ed50
77f8
77f8
3bfc
3bfc
1c08
1c08
0ffc
0000
ENDCHAR
STARTCHAR chapter
ENCODING 113
SWIDTH 1152 0
DWIDTH 16 0
BBX 14 13 1 0
BITMAP
7f80
40c0
4ca0
5290
5ef0
5210
52d0
4010
5fd0
4010
5fd0
4010
7ff0
ENDCHAR
STARTCHAR space01
ENCODING 201
SWIDTH 72 0
DWIDTH 1 0
BBX 1 1 0 0
BITMAP
00
ENDCHAR
STARTCHAR space02
ENCODING 202
SWIDTH 144 0
DWIDTH 2 0
BBX 1 1 0 0
BITMAP
00
ENDCHAR
STARTCHAR space04
ENCODING 204
SWIDTH 288 0
DWIDTH 4 0
BBX 1 1 0 0
BITMAP
00
ENDCHAR
STARTCHAR space08
ENCODING 208
SWIDTH 576 0
DWIDTH 8 0
BBX 1 1 0 0
BITMAP
00
ENDCHAR
STARTCHAR space12
ENCODING 212
SWIDTH 864 0
DWIDTH 12 0
BBX 1 1 0 0
BITMAP
00
ENDCHAR
STARTCHAR space14
ENCODING 214
SWIDTH 1008 0
DWIDTH 14 0
BBX 1 1 0 0
BITMAP
00
ENDCHAR
STARTCHAR space16
ENCODING 216
SWIDTH 1152 0
DWIDTH 16 0
BBX 1 1 0 0
BITMAP
00
ENDCHAR
STARTCHAR space32
ENCODING 232
SWIDTH 2304 0
DWIDTH 32 0
BBX 1 1 0 0
BITMAP
00
ENDCHAR
ENDFONT
